<svg width="131" height="28" viewBox="0 0 131 28" fill="none" xmlns="http://www.w3.org/2000/svg">
<g clip-path="url(#clip0_1_5)">
<path d="M9.152 22.72C7.89333 22.72 6.96533 22.368 6.368 21.664C5.792 20.96 5.504 20.0533 5.504 18.944V8.384H0V6.208H4.096C4.65067 6.208 5.03467 6.10133 5.248 5.888C5.48267 5.65333 5.6 5.25867 5.6 4.704V0.384001H8.064V6.208H15.584V8.384H8.064V20.544H15.584V22.72H9.152Z" fill="#F1F1F1"/>
<path d="M20.4035 20.544H25.2355V8.384H20.4035V6.208H27.7955V10.368H27.9555C28.2968 9.06667 28.9368 8.05333 29.8755 7.328C30.8355 6.58133 32.0515 6.208 33.5235 6.208H35.8275V8.768H32.7235C31.2515 8.768 30.0568 9.19467 29.1395 10.048C28.2435 10.9013 27.7955 12.0213 27.7955 13.408V20.544H34.1955V22.72H20.4035V20.544Z" fill="#F1F1F1"/>
<path d="M46.727 23.104C45.575 23.104 44.5297 22.9013 43.591 22.496C42.6737 22.0907 41.8843 21.5147 41.223 20.768C40.583 20 40.0923 19.0933 39.751 18.048C39.4097 16.9813 39.239 15.7867 39.239 14.464C39.239 13.1627 39.4097 11.9787 39.751 10.912C40.0923 9.84533 40.583 8.93867 41.223 8.192C41.8843 7.424 42.6737 6.83733 43.591 6.432C44.5297 6.02667 45.575 5.824 46.727 5.824C47.879 5.824 48.9137 6.02667 49.831 6.432C50.7697 6.83733 51.559 7.424 52.199 8.192C52.8603 8.93867 53.3617 9.84533 53.703 10.912C54.0443 11.9787 54.215 13.1627 54.215 14.464C54.215 15.7867 54.0443 16.9813 53.703 18.048C53.3617 19.0933 52.8603 20 52.199 20.768C51.559 21.5147 50.7697 22.0907 49.831 22.496C48.9137 22.9013 47.879 23.104 46.727 23.104ZM46.727 20.896C48.1563 20.896 49.3083 20.4693 50.183 19.616C51.0577 18.7627 51.495 17.44 51.495 15.648V13.28C51.495 11.488 51.0577 10.1653 50.183 9.312C49.3083 8.45867 48.1563 8.032 46.727 8.032C45.2977 8.032 44.1457 8.45867 43.271 9.312C42.3963 10.1653 41.959 11.488 41.959 13.28V15.648C41.959 17.44 42.3963 18.7627 43.271 19.616C44.1457 20.4693 45.2977 20.896 46.727 20.896Z" fill="#F1F1F1"/>
<path d="M64.2825 22.72L58.3625 6.208H60.9545L65.8825 20.576H66.0105L70.9385 6.208H73.4665L67.5465 22.72H64.2825Z" fill="#F1F1F1"/>
<path d="M85.39 23.104C84.1953 23.104 83.118 22.9013 82.158 22.496C81.2193 22.0907 80.4087 21.5147 79.726 20.768C79.0647 20 78.5527 19.0933 78.19 18.048C77.8273 16.9813 77.646 15.7973 77.646 14.496C77.646 13.1733 77.8273 11.9787 78.19 10.912C78.574 9.84533 79.0967 8.93867 79.758 8.192C80.4193 7.424 81.2087 6.83733 82.126 6.432C83.0647 6.02667 84.0993 5.824 85.23 5.824C86.3393 5.824 87.342 6.02667 88.238 6.432C89.1553 6.83733 89.934 7.40267 90.574 8.128C91.214 8.832 91.7047 9.67467 92.046 10.656C92.3873 11.6373 92.558 12.7147 92.558 13.888V15.104H80.334V15.872C80.334 16.5973 80.4513 17.2693 80.686 17.888C80.9207 18.5067 81.2513 19.04 81.678 19.488C82.126 19.936 82.6593 20.288 83.278 20.544C83.918 20.7787 84.622 20.896 85.39 20.896C86.4993 20.896 87.4593 20.64 88.27 20.128C89.0807 19.616 89.6993 18.912 90.126 18.016L92.014 19.296C91.5233 20.4053 90.702 21.3227 89.55 22.048C88.4193 22.752 87.0327 23.104 85.39 23.104ZM85.23 7.936C84.526 7.936 83.8753 8.064 83.278 8.32C82.6807 8.576 82.158 8.928 81.71 9.376C81.2833 9.824 80.942 10.3573 80.686 10.976C80.4513 11.5733 80.334 12.2347 80.334 12.96V13.184H89.806V12.832C89.806 12.1067 89.6887 11.4453 89.454 10.848C89.2407 10.2507 88.9313 9.73867 88.526 9.312C88.142 8.864 87.662 8.52267 87.086 8.288C86.5313 8.05333 85.9127 7.936 85.23 7.936Z" fill="#F1F1F1"/>
<path d="M110.402 27.968H106.658C105.399 27.968 104.471 27.616 103.873 26.912C103.298 26.208 103.009 25.3013 103.009 24.192V23.008C101.879 22.8587 100.897 22.496 100.065 21.92C99.2548 21.3227 98.5828 20.544 98.0495 19.584C97.5162 18.6027 97.1215 17.44 96.8655 16.096C96.6095 14.7307 96.4815 13.216 96.4815 11.552C96.4815 9.73867 96.6308 8.11733 96.9295 6.688C97.2282 5.23733 97.6975 4.02133 98.3375 3.04C98.9775 2.05867 99.7882 1.312 100.77 0.799999C101.751 0.266666 102.924 0 104.289 0C105.655 0 106.828 0.266666 107.81 0.799999C108.791 1.312 109.602 2.05867 110.242 3.04C110.882 4.02133 111.351 5.23733 111.649 6.688C111.948 8.11733 112.098 9.73867 112.098 11.552C112.098 14.9013 111.575 17.5787 110.53 19.584C109.484 21.568 107.831 22.7093 105.57 23.008V25.792H110.402V27.968ZM104.289 20.768C105.186 20.768 105.943 20.5973 106.562 20.256C107.18 19.8933 107.692 19.392 108.098 18.752C108.503 18.112 108.791 17.344 108.962 16.448C109.154 15.5307 109.25 14.5067 109.25 13.376V9.728C109.25 8.61867 109.154 7.60533 108.962 6.688C108.791 5.77067 108.503 4.992 108.098 4.352C107.692 3.712 107.18 3.22133 106.562 2.88C105.943 2.51733 105.186 2.336 104.289 2.336C103.393 2.336 102.636 2.51733 102.018 2.88C101.399 3.22133 100.887 3.712 100.481 4.352C100.076 4.992 99.7775 5.77067 99.5855 6.688C99.4148 7.60533 99.3295 8.61867 99.3295 9.728V13.376C99.3295 14.5067 99.4148 15.5307 99.5855 16.448C99.7775 17.344 100.076 18.112 100.481 18.752C100.887 19.392 101.399 19.8933 102.018 20.256C102.636 20.5973 103.393 20.768 104.289 20.768Z" fill="#F1F1F1"/>
<path d="M117.717 22.72V0.384001H120.405V20.384H130.997V22.72H117.717Z" fill="#F1F1F1"/>
<circle cx="46.8667" cy="11.8667" r="1.86667" fill="#F1F1F1"/>
<path d="M46.8667 10L48.4833 18H45.2501L46.8667 10Z" fill="#F1F1F1"/>
</g>
<defs>
<clipPath id="clip0_1_5">
<rect width="131" height="28" fill="white"/>
</clipPath>
</defs>
</svg>
